<svg xmlns="http://www.w3.org/2000/svg" id="canvas" viewBox="601.966 358.178 773.417 325.322"><path d="M 652.69,406.97 C 651.15 407.89, 650.07 409.35, 647.23 413.29 C 644.38 417.24, 642.48 419.87, 638.47 426.70 C 634.46 433.53, 631.56 438.25, 627.19 447.44 C 622.82 456.64, 620.33 462.57, 616.61 472.67 C 612.89 482.78, 610.90 488.57, 608.59 497.96 C 606.27 507.36, 605.23 512.26, 605.02 519.65 C 604.81 527.04, 605.13 530.38, 607.53 534.90 C 609.93 539.42, 612.06 541.02, 617.02 542.27 C 621.97 543.51, 625.51 543.15, 632.31 541.13 C 639.12 539.11, 643.19 537.05, 651.04 532.18 C 658.89 527.31, 663.27 523.75, 671.56 516.76 C 679.85 509.77, 684.24 505.42, 692.49 497.24 C 700.75 489.06, 705.17 484.20, 712.83 475.86 C 720.49 467.52, 724.87 462.27, 730.79 455.55 C 736.71 448.82, 739.84 445.72, 742.43 442.23 C 745.02 438.74, 744.88 437.35, 743.75 438.10 C 742.61 438.85, 740.68 440.81, 736.75 445.98 C 732.81 451.15, 729.39 455.90, 724.07 463.96 C 718.75 472.01, 715.03 477.56, 710.15 486.25 C 705.27 494.95, 702.65 499.92, 699.67 507.43 C 696.68 514.93, 695.52 518.32, 695.24 523.78 C 694.97 529.24, 695.50 531.76, 698.29 534.72 C 701.07 537.68, 703.78 538.51, 709.15 538.59 C 714.52 538.66, 717.98 537.67, 725.13 535.09 C 732.29 532.51, 736.28 530.47, 744.92 525.68 C 753.56 520.89, 758.65 517.50, 768.34 511.15 C 778.03 504.81, 783.56 500.78, 793.37 493.95 C 803.19 487.13, 808.46 483.10, 817.42 477.03 C 826.38 470.95, 831.52 467.71, 838.18 463.60 C 844.84 459.49, 848.46 458.35, 850.71 456.46 C 852.97 454.58, 851.69 453.00, 849.46 454.18 C 847.24 455.35, 844.83 457.56, 839.60 462.33 C 834.38 467.10, 830.17 471.11, 823.35 478.04 C 816.53 484.97, 811.93 489.74, 805.51 496.99 C 799.10 504.25, 795.66 508.08, 791.28 514.33 C 786.89 520.57, 785.03 523.70, 783.59 528.21 C 782.16 532.71, 782.28 535.07, 784.12 536.87 C 785.96 538.66, 788.52 538.76, 792.80 537.17 C 797.09 535.58, 799.81 533.56, 805.54 528.91 C 811.26 524.25, 814.63 520.98, 821.43 513.91 C 828.23 506.83, 832.17 502.53, 839.53 493.51 C 846.90 484.49, 850.84 478.95, 858.25 468.81 C 865.66 458.67, 869.63 453.13, 876.57 442.82 C 883.52 432.51, 886.91 427.02, 892.97 417.25 C 899.02 407.48, 901.87 402.43, 906.83 393.98 C 911.79 385.52, 914.69 381.09, 917.75 374.97 C 920.81 368.85, 922.37 365.80, 922.13 363.37 C 921.89 360.94, 919.58 360.21, 916.53 362.84 C 913.49 365.46, 911.61 368.98, 906.91 376.48 C 902.20 383.98, 898.66 389.98, 893.01 400.35 C 887.37 410.72, 883.94 417.12, 878.68 428.33 C 873.43 439.55, 870.78 445.76, 866.72 456.40 C 862.66 467.03, 860.62 472.47, 858.39 481.51 C 856.16 490.54, 855.52 494.60, 855.57 501.56 C 855.62 508.52, 856.23 511.80, 858.64 516.31 C 861.04 520.83, 863.06 522.57, 867.58 524.13 C 872.10 525.69, 875.30 525.36, 881.26 524.10 C 887.21 522.84, 890.63 521.49, 897.37 517.82 C 904.10 514.14, 907.94 511.26, 914.92 505.71 C 921.89 500.16, 925.79 496.58, 932.23 490.08 C 938.68 483.57, 941.92 479.84, 947.13 473.17 C 952.33 466.51, 954.91 462.62, 958.26 456.75 C 961.61 450.87, 963.05 448.19, 963.88 443.80 C 964.72 439.41, 964.41 437.20, 962.45 434.78 C 960.48 432.37, 958.06 431.35, 954.05 431.71 C 950.04 432.08, 947.17 433.55, 942.40 436.63 C 937.62 439.71, 934.78 442.17, 930.18 447.11 C 925.58 452.05, 923.24 455.29, 919.40 461.31 C 915.56 467.34, 913.58 471.00, 910.98 477.22 C 908.38 483.44, 907.30 486.71, 906.40 492.41 C 905.50 498.12, 905.37 501.04, 906.49 505.75 C 907.60 510.45, 908.69 512.85, 911.98 515.92 C 915.26 518.99, 917.69 520.15, 922.91 521.10 C 928.12 522.06, 931.53 521.96, 938.07 520.68 C 944.61 519.41, 948.35 518.00, 955.61 514.71 C 962.88 511.42, 966.82 508.87, 974.38 504.23 C 981.95 499.60, 986.11 496.65, 993.44 491.54 C 1000.76 486.43, 1004.58 483.50, 1011.01 478.70 C 1017.43 473.89, 1020.40 471.35, 1025.55 467.51 C 1030.70 463.68, 1033.74 461.95, 1036.75 459.54 C 1039.76 457.13, 1040.52 456.06, 1040.61 455.49 C 1040.70 454.91, 1038.86 454.73, 1037.20 456.65 C 1035.53 458.58, 1034.91 460.89, 1032.29 465.12 C 1029.67 469.36, 1027.59 472.58, 1024.09 477.83 C 1020.58 483.08, 1018.07 486.46, 1014.77 491.38 C 1011.48 496.31, 1009.37 498.81, 1007.62 502.45 C 1005.88 506.08, 1005.31 507.78, 1006.07 509.55 C 1006.82 511.33, 1008.55 512.38, 1011.38 511.31 C 1014.22 510.24, 1015.80 508.00, 1020.23 504.20 C 1024.66 500.40, 1027.61 497.41, 1033.54 492.31 C 1039.48 487.22, 1043.20 484.11, 1049.91 478.72 C 1056.61 473.34, 1060.52 470.03, 1067.07 465.37 C 1073.62 460.72, 1077.52 458.28, 1082.65 455.45 C 1087.78 452.61, 1090.13 452.05, 1092.72 451.20 C 1095.31 450.36, 1095.51 450.10, 1095.60 451.20 C 1095.69 452.31, 1094.71 453.42, 1093.18 456.72 C 1091.65 460.02, 1090.36 463.14, 1087.94 467.68 C 1085.52 472.23, 1083.34 475.07, 1081.07 479.45 C 1078.80 483.83, 1076.71 486.48, 1076.61 489.57 C 1076.51 492.67, 1077.83 494.68, 1080.57 494.94 C 1083.32 495.20, 1085.43 493.67, 1090.33 490.88 C 1095.23 488.09, 1098.40 485.43, 1105.06 481.01 C 1111.71 476.59, 1116.34 473.31, 1123.61 468.78 C 1130.87 464.26, 1135.32 461.43, 1141.39 458.39 C 1147.47 455.35, 1150.48 454.57, 1153.98 453.57 C 1157.48 452.57, 1158.08 452.47, 1158.91 453.41 C 1159.74 454.35, 1159.05 455.33, 1158.13 458.26 C 1157.20 461.19, 1156.15 463.80, 1154.29 468.06 C 1152.43 472.32, 1150.85 475.10, 1148.83 479.55 C 1146.81 484.00, 1145.33 486.33, 1144.20 490.30 C 1143.06 494.27, 1142.36 496.38, 1143.15 499.40 C 1143.93 502.41, 1145.12 504.22, 1148.10 505.40 C 1151.08 506.58, 1153.35 506.28, 1158.05 505.28 C 1162.76 504.28, 1165.78 502.93, 1171.63 500.42 C 1177.48 497.91, 1180.59 496.26, 1187.30 492.74 C 1194.02 489.22, 1197.89 487.07, 1205.20 482.82 C 1212.51 478.58, 1216.73 476.00, 1223.85 471.51 C 1230.97 467.02, 1235.06 464.17, 1240.81 460.37 C 1246.57 456.58, 1249.85 454.95, 1252.62 452.52 C 1255.40 450.10, 1255.37 448.57, 1254.69 448.25 C 1254.01 447.94, 1252.28 448.21, 1249.21 450.95 C 1246.13 453.68, 1243.58 457.03, 1239.32 461.93 C 1235.07 466.82, 1231.82 470.13, 1227.93 475.44 C 1224.05 480.75, 1221.96 483.66, 1219.88 488.48 C 1217.81 493.31, 1216.83 495.93, 1217.56 499.55 C 1218.29 503.17, 1220.02 505.18, 1223.56 506.57 C 1227.10 507.96, 1229.85 507.49, 1235.26 506.50 C 1240.67 505.51, 1243.83 504.30, 1250.60 501.62 C 1257.38 498.94, 1261.70 496.92, 1269.14 493.08 C 1276.59 489.23, 1280.76 486.58, 1287.84 482.39 C 1294.91 478.20, 1298.84 475.46, 1304.51 472.14 C 1310.18 468.81, 1313.15 467.38, 1316.18 465.76 C 1319.20 464.14, 1319.32 463.41, 1319.65 464.03 C 1319.99 464.65, 1319.25 465.27, 1317.84 468.88 C 1316.43 472.50, 1315.53 475.67, 1312.61 482.09 C 1309.68 488.51, 1307.32 492.76, 1303.22 500.97 C 1299.12 509.18, 1296.61 513.85, 1292.11 523.13 C 1287.60 532.42, 1285.36 537.49, 1280.69 547.40 C 1276.03 557.31, 1273.45 562.52, 1268.77 572.69 C 1264.10 582.86, 1261.91 588.24, 1257.31 598.24 C 1252.70 608.24, 1250.69 613.43, 1245.75 622.69 C 1240.81 631.95, 1237.99 636.67, 1232.61 644.53 C 1227.23 652.40, 1224.18 656.34, 1218.84 662.01 C 1213.50 667.67, 1210.66 669.91, 1205.92 672.84 C 1201.18 675.77, 1198.66 676.26, 1195.13 676.65 C 1191.60 677.05, 1190.38 676.77, 1188.28 674.82 C 1186.17 672.88, 1185.41 671.23, 1184.59 666.92 C 1183.76 662.61, 1183.33 659.40, 1184.15 653.27 C 1184.97 647.14, 1185.59 643.58, 1188.67 636.26 C 1191.76 628.94, 1194.01 624.75, 1199.57 616.69 C 1205.13 608.63, 1208.69 604.21, 1216.47 595.96 C 1224.24 587.71, 1229.12 583.40, 1238.45 575.45 C 1247.77 567.51, 1253.17 563.38, 1263.08 556.24 C 1272.99 549.10, 1278.28 545.72, 1288.00 539.75 C 1297.72 533.78, 1302.73 531.02, 1311.68 526.40 C 1320.63 521.78, 1324.88 520.00, 1332.77 516.63 C 1340.66 513.26, 1344.98 511.79, 1351.13 509.56 C 1357.28 507.33, 1359.74 506.81, 1363.51 505.50 C 1367.27 504.19, 1368.21 503.83, 1369.95 502.99 C 1371.68 502.15, 1371.79 501.88, 1372.16 501.29 C 1372.53 500.70, 1372.46 500.34, 1371.80 500.04 C 1371.15 499.74, 1370.83 499.45, 1368.91 499.80 C 1366.98 500.15, 1365.93 500.38, 1362.16 501.80 C 1358.40 503.21, 1356.15 504.34, 1350.08 506.89 C 1344.02 509.44, 1339.72 510.99, 1331.85 514.54 C 1323.99 518.09, 1319.73 519.92, 1310.77 524.65 C 1301.81 529.39, 1296.79 532.17, 1287.05 538.20 C 1277.30 544.23, 1272.00 547.63, 1262.04 554.80 C 1252.08 561.97, 1246.66 566.10, 1237.26 574.05 C 1227.85 582.01, 1222.93 586.32, 1215.01 594.58 C 1207.10 602.84, 1203.46 607.25, 1197.68 615.36 C 1191.89 623.47, 1189.49 627.65, 1186.09 635.13 C 1182.69 642.60, 1181.79 646.23, 1180.68 652.74 C 1179.57 659.25, 1179.59 662.65, 1180.57 667.69 C 1181.54 672.74, 1182.55 675.42, 1185.55 677.94 C 1188.54 680.46, 1191.15 680.81, 1195.55 680.30 C 1199.94 679.78, 1202.52 678.69, 1207.54 675.37 C 1212.56 672.05, 1215.29 669.61, 1220.66 663.69 C 1226.03 657.76, 1229.03 653.75, 1234.39 645.74 C 1239.76 637.73, 1242.57 632.96, 1247.50 623.62 C 1252.43 614.28, 1254.44 609.06, 1259.05 599.04 C 1263.65 589.01, 1265.83 583.65, 1270.52 573.50 C 1275.21 563.34, 1277.79 558.13, 1282.51 548.26 C 1287.23 538.39, 1289.49 533.33, 1294.12 524.13 C 1298.76 514.93, 1301.33 510.34, 1305.68 502.24 C 1310.03 494.15, 1312.61 490.06, 1315.85 483.65 C 1319.10 477.24, 1320.80 474.40, 1321.91 470.19 C 1323.02 465.99, 1322.86 464.23, 1321.40 462.62 C 1319.94 461.02, 1318.31 460.82, 1314.59 462.17 C 1310.88 463.52, 1308.47 465.82, 1302.83 469.37 C 1297.19 472.92, 1293.38 475.72, 1286.37 479.93 C 1279.37 484.15, 1275.20 486.75, 1267.80 490.44 C 1260.41 494.13, 1256.03 495.98, 1249.38 498.39 C 1242.73 500.81, 1239.44 501.70, 1234.57 502.49 C 1229.69 503.29, 1227.57 503.11, 1225.02 502.38 C 1222.47 501.64, 1222.10 501.29, 1221.81 498.84 C 1221.52 496.38, 1221.69 494.29, 1223.58 490.11 C 1225.46 485.92, 1227.40 482.93, 1231.23 477.90 C 1235.06 472.86, 1238.45 469.69, 1242.72 464.92 C 1246.99 460.15, 1250.08 457.35, 1252.58 454.05 C 1255.07 450.76, 1255.62 449.38, 1255.18 448.44 C 1254.74 447.50, 1253.59 447.48, 1250.36 449.34 C 1247.12 451.20, 1244.60 453.76, 1239.00 457.73 C 1233.41 461.70, 1229.40 464.64, 1222.37 469.18 C 1215.33 473.72, 1211.12 476.28, 1203.83 480.43 C 1196.53 484.57, 1192.61 486.66, 1185.88 489.92 C 1179.15 493.19, 1175.93 494.64, 1170.17 496.76 C 1164.41 498.88, 1161.19 499.72, 1157.09 500.51 C 1152.98 501.30, 1151.46 501.09, 1149.63 500.70 C 1147.81 500.31, 1148.01 500.31, 1147.94 498.55 C 1147.88 496.78, 1148.18 495.25, 1149.30 491.88 C 1150.43 488.51, 1151.59 486.05, 1153.57 481.71 C 1155.56 477.37, 1157.31 474.68, 1159.22 470.18 C 1161.13 465.69, 1162.76 463.03, 1163.14 459.23 C 1163.52 455.43, 1163.11 453.03, 1161.11 451.18 C 1159.10 449.32, 1157.34 449.09, 1153.11 449.97 C 1148.87 450.84, 1146.16 452.30, 1139.94 455.54 C 1133.71 458.79, 1129.35 461.67, 1121.99 466.17 C 1114.64 470.67, 1109.89 473.83, 1103.15 478.06 C 1096.41 482.30, 1092.88 484.67, 1088.29 487.35 C 1083.71 490.02, 1081.64 490.77, 1080.22 491.44 C 1078.81 492.12, 1080.09 492.60, 1081.23 490.72 C 1082.37 488.85, 1083.63 486.16, 1085.92 482.05 C 1088.20 477.94, 1090.23 474.86, 1092.66 470.15 C 1095.09 465.45, 1096.91 462.53, 1098.07 458.52 C 1099.22 454.50, 1099.68 452.33, 1098.44 450.07 C 1097.20 447.82, 1095.33 446.76, 1091.85 447.26 C 1088.36 447.76, 1086.29 449.42, 1081.00 452.58 C 1075.71 455.74, 1071.99 458.28, 1065.41 463.06 C 1058.84 467.84, 1054.95 471.17, 1048.13 476.48 C 1041.32 481.80, 1037.47 484.78, 1031.34 489.65 C 1025.21 494.52, 1021.97 497.35, 1017.48 500.83 C 1012.99 504.31, 1010.74 505.36, 1008.87 507.07 C 1007.00 508.78, 1007.55 509.86, 1008.14 509.40 C 1008.72 508.94, 1009.77 507.91, 1011.80 504.78 C 1013.84 501.64, 1015.12 498.61, 1018.31 493.72 C 1021.51 488.84, 1024.12 485.53, 1027.77 480.36 C 1031.43 475.19, 1033.81 472.13, 1036.59 467.86 C 1039.37 463.59, 1040.89 461.77, 1041.69 459.02 C 1042.49 456.26, 1042.06 454.65, 1040.60 454.08 C 1039.13 453.52, 1037.75 454.01, 1034.35 456.20 C 1030.96 458.40, 1028.61 460.96, 1023.63 465.04 C 1018.64 469.12, 1015.73 471.71, 1009.41 476.60 C 1003.08 481.48, 999.27 484.39, 991.99 489.46 C 984.71 494.54, 980.54 497.48, 973.02 501.99 C 965.51 506.50, 961.54 508.95, 954.42 512.01 C 947.31 515.08, 943.61 516.25, 937.45 517.31 C 931.29 518.36, 928.16 518.16, 923.62 517.29 C 919.08 516.42, 917.41 515.45, 914.74 512.96 C 912.06 510.48, 911.21 508.85, 910.24 504.85 C 909.26 500.84, 909.12 498.21, 909.87 492.93 C 910.63 487.66, 911.54 484.44, 914.01 478.48 C 916.47 472.51, 918.42 468.87, 922.19 463.12 C 925.96 457.36, 928.37 454.25, 932.88 449.69 C 937.38 445.14, 940.36 443.00, 944.72 440.33 C 949.09 437.66, 951.75 436.98, 954.71 436.35 C 957.67 435.72, 958.41 435.84, 959.52 437.18 C 960.62 438.53, 961.03 439.45, 960.26 443.07 C 959.48 446.69, 958.67 449.59, 955.64 455.30 C 952.60 461.00, 950.11 464.99, 945.07 471.59 C 940.04 478.19, 936.81 481.91, 930.45 488.31 C 924.09 494.71, 920.16 498.23, 913.25 503.59 C 906.35 508.95, 902.46 511.68, 895.92 515.12 C 889.38 518.55, 886.00 519.61, 880.55 520.76 C 875.10 521.90, 872.50 522.01, 868.66 520.83 C 864.82 519.65, 863.46 518.72, 861.35 514.85 C 859.24 510.99, 858.30 508.09, 858.12 501.52 C 857.93 494.95, 858.37 490.89, 860.45 482.00 C 862.52 473.11, 864.50 467.64, 868.51 457.08 C 872.51 446.51, 875.14 440.29, 880.46 429.17 C 885.77 418.06, 889.32 411.73, 895.09 401.50 C 900.86 391.27, 904.56 385.32, 909.32 378.02 C 914.08 370.72, 916.81 367.98, 918.89 364.99 C 920.97 362.01, 920.45 361.34, 919.73 363.10 C 919.01 364.85, 918.24 367.79, 915.29 373.75 C 912.35 379.72, 909.78 384.42, 905.01 392.93 C 900.23 401.44, 897.39 406.51, 891.41 416.29 C 885.43 426.08, 882.04 431.55, 875.11 441.84 C 868.19 452.13, 864.21 457.66, 856.78 467.73 C 849.35 477.80, 845.39 483.33, 837.95 492.20 C 830.52 501.08, 826.50 505.30, 819.61 512.12 C 812.71 518.93, 809.15 522.00, 803.48 526.29 C 797.81 530.58, 794.77 531.83, 791.26 533.56 C 787.75 535.30, 786.86 535.81, 785.95 534.96 C 785.04 534.11, 785.21 533.13, 786.73 529.32 C 788.25 525.51, 789.41 522.02, 793.56 515.90 C 797.71 509.79, 801.07 505.87, 807.47 498.73 C 813.86 491.59, 818.64 486.99, 825.53 480.21 C 832.41 473.43, 836.68 469.59, 841.89 464.83 C 847.09 460.08, 850.09 458.67, 851.55 456.44 C 853.01 454.21, 852.14 452.71, 849.19 453.70 C 846.24 454.70, 843.37 457.08, 836.79 461.41 C 830.20 465.74, 825.16 469.15, 816.26 475.34 C 807.36 481.53, 802.08 485.55, 792.27 492.36 C 782.46 499.18, 776.92 503.18, 767.21 509.41 C 757.51 515.64, 752.37 518.96, 743.75 523.52 C 735.14 528.08, 731.05 529.91, 724.13 532.22 C 717.22 534.54, 713.84 535.07, 709.17 535.10 C 704.49 535.13, 702.93 534.60, 700.75 532.37 C 698.56 530.14, 697.96 528.74, 698.24 523.94 C 698.51 519.15, 699.28 515.67, 702.12 508.39 C 704.96 501.11, 707.55 496.10, 712.44 487.55 C 717.32 478.99, 721.18 473.56, 726.57 465.63 C 731.95 457.69, 735.66 453.22, 739.35 447.87 C 743.04 442.51, 744.85 440.36, 745.03 438.84 C 745.21 437.33, 743.47 437.27, 740.25 440.30 C 737.04 443.32, 734.74 447.12, 728.96 453.96 C 723.17 460.81, 718.90 466.13, 711.33 474.50 C 703.76 482.87, 699.34 487.72, 691.11 495.83 C 682.87 503.95, 678.45 508.25, 670.16 515.08 C 661.88 521.90, 657.43 525.33, 649.69 529.96 C 641.95 534.59, 637.85 536.39, 631.47 538.24 C 625.08 540.08, 622.01 540.14, 617.74 539.20 C 613.48 538.26, 612.16 537.43, 610.13 533.53 C 608.10 529.63, 607.46 526.72, 607.59 519.71 C 607.72 512.71, 608.57 507.75, 610.80 498.50 C 613.03 489.25, 614.98 483.45, 618.72 473.46 C 622.46 463.47, 625.01 457.59, 629.49 448.56 C 633.97 439.53, 636.98 434.94, 641.13 428.32 C 645.28 421.69, 647.49 419.36, 650.25 415.44 C 653.00 411.52, 654.43 410.40, 654.92 408.70 C 655.41 407.01, 654.23 406.05, 652.69 406.97" style="stroke: white; fill: white;"/></svg>